<svg xmlns="http://www.w3.org/2000/svg" width="167" height="40" fill="#fff"><path d="M75.752 35.714H15.039V40h-.001v-4.286H8.609L15.038 40H.039l3.214-6.785-3.214-6.786h8.57v-4.286h67.143v13.571zM58.018 25.606c-.412 0-.778.071-1.099.214-.32.137-.569.338-.746.601s-.267.573-.267.928c0 .377.086.68.258.909.177.223.387.392.627.507.246.109.563.221.952.335l.67.223a1.09 1.09 0 0 1 .411.266.61.61 0 0 1 .163.438.67.67 0 0 1-.24.532c-.16.131-.38.197-.66.197s-.492-.072-.652-.215c-.155-.143-.241-.338-.258-.584H55.89c.006.366.105.684.3.953a1.86 1.86 0 0 0 .79.618c.337.143.715.214 1.133.214.441 0 .821-.08 1.142-.24.32-.166.564-.386.73-.66s.249-.572.249-.893c0-.372-.089-.672-.267-.901s-.389-.401-.635-.516a7 7 0 0 0-.953-.343l-.669-.224c-.154-.069-.286-.154-.395-.257-.103-.109-.155-.243-.155-.403 0-.229.069-.403.206-.524.143-.12.332-.181.566-.181.269 0 .484.069.645.206a.67.67 0 0 1 .266.506h1.321c-.04-.538-.255-.956-.644-1.253-.383-.303-.884-.454-1.502-.454zm-26.663 6.085l1.408-.009 1.176-4.266 1.124 4.266h1.416l1.674-5.991h-1.296l-1.064 4.626-1.15-4.626h-1.339l-1.219 4.652-1.056-4.652h-1.287l1.613 6zm-7.551-.009h1.262l.395-1.142h2.386l.395 1.142h1.27l-2.154-5.999H25.96l-2.154 5.999zm14.592 0h1.262l.395-1.142h2.386l.395 1.142h1.27l-2.154-5.999h-1.4l-2.154 5.999zm6.342 0h1.201v-2.335h.566l1.322 2.335h1.39l-1.433-2.429c.452-.12.792-.338 1.02-.652.229-.321.344-.678.344-1.073 0-.343-.083-.652-.249-.927-.16-.28-.403-.501-.73-.661-.326-.166-.721-.249-1.184-.249h-2.248v5.991zm5.326 0h2.094c.629 0 1.182-.123 1.657-.369.48-.246.849-.592 1.106-1.038.263-.452.395-.979.395-1.58s-.132-1.127-.395-1.579c-.258-.457-.626-.81-1.106-1.056-.475-.246-1.028-.369-1.657-.369h-2.094v5.991zm2.052-4.978c.629 0 1.116.178 1.459.532s.515.836.515 1.459-.171 1.108-.515 1.451-.83.515-1.459.515h-.851v-3.957h.851zM27.52 29.58h-1.733l.867-2.507.866 2.507zm14.593 0H40.38l.866-2.507.867 2.507zm4.83-2.893c.326 0 .569.077.73.231s.24.361.24.636c0 .28-.08.5-.24.66-.16.154-.403.232-.73.232h-1.004v-1.76h1.004zM81.109 6.786l3.215 6.785h-8.572v4.286H8.609V4.286h67.143L69.324 0h15l-3.215 6.786zm-58.451.356c-1.309 0-2.017 1.084-2.017 2.322 0 1.143.557 1.709 1.426 2.322l.107.072c.255.172.595.402.716.658a.95.95 0 0 1 .081.4c0 .543-.383.873-.904.873-.428 0-.788-.189-1.136-.425v1.485c.394.271.858.401 1.333.401 1.402 0 2.202-1.073 2.202-2.429 0-1.227-.726-1.76-1.365-2.229-.503-.369-.952-.698-.952-1.295 0-.46.313-.766.765-.766.428 0 .787.235 1.101.506V7.52c-.452-.259-.835-.377-1.356-.377zm44.807 0c-1.309 0-2.017 1.084-2.017 2.322 0 1.143.557 1.709 1.426 2.322l.107.072c.255.172.595.402.716.658a.95.95 0 0 1 .081.4c0 .542-.383.873-.904.873-.428 0-.788-.189-1.136-.425v1.485c.394.271.858.401 1.333.401 1.402 0 2.202-1.073 2.202-2.429 0-1.227-.727-1.76-1.366-2.229-.503-.369-.952-.698-.952-1.295 0-.46.314-.766.766-.766.428 0 .788.235 1.101.506V7.52c-.452-.26-.835-.377-1.356-.377zm-35.127-.001c-2.167 0-2.747 2.275-2.747 4.078 0 1.745.661 4.032 2.747 4.032 1.31 0 2.087-1.026 2.342-2.24.116-.542.139-1.108.139-1.662l-.012-.601-2.48-.001v1.392h.974c-.012.637-.104 1.697-.938 1.697-1.101 0-1.136-1.863-1.136-2.641 0-.743.081-2.687 1.124-2.688.58 0 .708.625.777 1.085l1.483-.59c-.325-1.108-1.09-1.862-2.273-1.862zm28.274 7.98h1.53v-3.618l1.356 3.618 1.611.001-1.345-3.572c.753-.472 1.101-1.108 1.101-2.004 0-.731-.301-1.497-.915-1.91-.487-.33-1.113-.377-1.681-.377h-1.658v7.862zm-45.573 0h1.53l.278-1.32h1.541l.29 1.32h1.623L18.447 7.26h-1.6l-1.809 7.862zm10.059 0h1.53v-3.996l1.426 3.996h1.599l-1.6-4.232 1.426-3.631h-1.564l-1.286 3.513V7.26h-1.53v7.862zm9.833 0h1.53l.278-1.32h1.541l.29 1.32h1.623L38.339 7.26h-1.6l-1.809 7.862zm5.777 0h1.634l.244-5.658.093.92c.034.398.115.785.195 1.171l.001.008.719 3.56h1.171l.684-3.843.233-1.815.382 5.658h1.565L46.83 7.26h-2.063l-.614 4.645-.754-4.645H41.38l-.672 7.862zm7.554 0h1.622c.452 0 1.229-.071 1.82-.672.429-.436.58-.966.58-1.556 0-.295-.046-.731-.267-1.108-.093-.153-.337-.507-.835-.695.29-.118.487-.306.614-.459.278-.342.359-.731.359-1.12 0-.637-.22-1.285-.638-1.698-.533-.53-1.216-.554-1.622-.554H48.26v7.862zm4.761 0h3.129v-1.474h-1.6V7.26h-1.529v7.862zm3.755 0h3.095v-1.45h-1.565v-1.768h1.356v-1.485h-1.356V8.722h1.542V7.26h-3.072v7.862zm-6.985-3.43c.22 0 .498.082.684.247.174.165.302.448.302.825 0 .342-.128.613-.29.767-.174.165-.452.247-.695.247v-2.086zM17.59 9.287l.127 1.037.422 2.176.018.088h-1.078l.511-3.301zm19.891 0l.128 1.037.421 2.176.02.088h-1.078l.51-3.301zm24.952-.801c.672 0 .95.436.95 1.072s-.325 1.097-.985 1.097c-.081 0-.174-.001-.255-.013V8.486h.29zm-12.641.059c.336 0 .544.106.672.235.22.224.244.519.244.708 0 .177-.024.507-.244.731-.151.153-.429.258-.672.271V8.545zM117.879 36v-1.606h-3.553v-.77L118 28.245h.902v5.28h1.122v.869h-1.122V36h-1.023zm.011-2.475v-4.026h.22l-2.904 4.279-.022-.253h2.706zM108.138 36v-.77l2.629-2.827a5.28 5.28 0 0 0 .594-.737 2.52 2.52 0 0 0 .33-.66c.073-.22.11-.44.11-.66 0-.425-.132-.748-.396-.968-.257-.22-.631-.33-1.122-.33a2.85 2.85 0 0 0-1.078.209c-.345.139-.671.356-.979.649l-.374-.792c.3-.293.674-.528 1.122-.704a3.81 3.81 0 0 1 1.408-.264c.52 0 .964.084 1.331.253a1.79 1.79 0 0 1 .836.715c.19.315.286.697.286 1.144a2.79 2.79 0 0 1-.088.693c-.052.22-.136.44-.253.66-.11.22-.25.447-.418.682a7.24 7.24 0 0 1-.616.715l-2.222 2.343v-.231h3.905V36h-5.005zm-4.242.099c-.594 0-1.097-.15-1.507-.451-.411-.308-.723-.759-.935-1.353-.206-.594-.308-1.32-.308-2.178 0-.865.102-1.591.308-2.178.212-.594.524-1.041.935-1.342s.913-.451 1.507-.451c.601 0 1.103.15 1.507.451.41.301.718.744.924 1.331.212.587.319 1.313.319 2.178 0 .858-.107 1.588-.319 2.189-.206.594-.514 1.045-.924 1.353-.404.301-.906.451-1.507.451zm0-.88a1.38 1.38 0 0 0 1.298-.759c.286-.506.429-1.291.429-2.354s-.14-1.841-.418-2.332c-.279-.499-.715-.748-1.309-.748-.58 0-1.012.249-1.298.748-.286.491-.429 1.269-.429 2.332s.139 1.848.418 2.354c.286.506.722.759 1.309.759zm-8.95.781v-.77l2.629-2.827c.249-.264.447-.51.594-.737a2.52 2.52 0 0 0 .33-.66c.073-.22.11-.44.11-.66 0-.425-.132-.748-.396-.968-.257-.22-.631-.33-1.122-.33a2.85 2.85 0 0 0-1.078.209c-.345.139-.671.356-.979.649l-.374-.792c.301-.293.675-.528 1.122-.704a3.81 3.81 0 0 1 1.408-.264c.521 0 .964.084 1.331.253.367.161.645.4.836.715s.286.697.286 1.144c0 .235-.029.466-.088.693-.051.22-.136.44-.253.66-.11.22-.249.447-.418.682a7.2 7.2 0 0 1-.616.715l-2.222 2.343v-.231h3.905V36h-5.005zm67.518-11.901c-.543 0-1.038-.092-1.485-.275a3.16 3.16 0 0 1-1.133-.792c-.315-.352-.557-.774-.726-1.265s-.253-1.041-.253-1.65c0-.616.081-1.166.242-1.65.169-.491.411-.909.726-1.254a3.16 3.16 0 0 1 1.133-.792 3.91 3.91 0 0 1 1.496-.275 3.86 3.86 0 0 1 1.496.275c.447.183.829.447 1.144.792s.554.763.715 1.254c.169.484.253 1.03.253 1.639 0 .616-.084 1.17-.253 1.661s-.411.913-.726 1.265c-.308.345-.686.609-1.133.792a3.86 3.86 0 0 1-1.496.275zm0-.913c.535 0 .99-.121 1.364-.363s.66-.59.858-1.045c.198-.462.297-1.016.297-1.661 0-.653-.099-1.206-.297-1.661-.191-.455-.473-.799-.847-1.034-.374-.242-.832-.363-1.375-.363-.521 0-.972.121-1.353.363a2.23 2.23 0 0 0-.858 1.034c-.198.455-.297 1.008-.297 1.661 0 .645.099 1.199.297 1.661.198.455.484.803.858 1.045.381.242.832.363 1.353.363zM150.838 24v-7.755h.825l4.774 6.336h-.209v-6.336h.979V24h-.825l-4.774-6.336h.198V24h-.968zm-2.997 0v-7.755h1.034V24h-1.034zm-4.355.099a6.52 6.52 0 0 1-1.155-.099c-.366-.073-.704-.176-1.012-.308-.3-.132-.572-.297-.814-.495l.352-.836c.25.191.506.348.77.473.272.125.561.216.869.275s.638.088.99.088c.631 0 1.1-.117 1.408-.352.316-.235.473-.543.473-.924 0-.213-.051-.389-.154-.528-.095-.147-.249-.271-.462-.374s-.491-.187-.836-.253l-1.188-.242c-.704-.139-1.224-.381-1.562-.726-.33-.345-.495-.796-.495-1.353 0-.462.125-.865.374-1.21a2.45 2.45 0 0 1 1.023-.803c.44-.191.943-.286 1.507-.286a4.47 4.47 0 0 1 1.012.11 3.45 3.45 0 0 1 .891.308c.272.139.51.312.715.517l-.352.803c-.322-.286-.671-.495-1.045-.627-.366-.139-.773-.209-1.221-.209-.374 0-.7.059-.979.176a1.46 1.46 0 0 0-.649.473c-.154.205-.231.447-.231.726 0 .323.099.579.297.77.206.191.55.334 1.034.429l1.177.242c.741.147 1.287.381 1.639.704.36.323.539.752.539 1.287a2.04 2.04 0 0 1-.352 1.177c-.234.337-.572.601-1.012.792-.432.183-.949.275-1.551.275zM132.054 24l3.443-7.755h.88L139.82 24h-1.078l-.946-2.2.484.286h-4.697l.484-.286-.946 2.2h-1.067zm3.861-6.578l-1.705 4.037-.275-.231h3.982l-.253.231-1.716-4.037h-.033zm-6.997 6.677c-.763 0-1.423-.161-1.98-.484a3.19 3.19 0 0 1-1.265-1.375c-.293-.594-.44-1.302-.44-2.123s.147-1.525.44-2.112a3.19 3.19 0 0 1 1.265-1.375c.55-.323 1.21-.484 1.98-.484a4.24 4.24 0 0 1 1.485.253c.455.161.836.4 1.144.715l-.374.836c-.337-.308-.686-.528-1.045-.66-.359-.139-.755-.209-1.188-.209-.836 0-1.481.264-1.936.792-.447.521-.671 1.269-.671 2.244s.224 1.727.671 2.255c.455.528 1.1.792 1.936.792a3.42 3.42 0 0 0 1.188-.198c.359-.139.708-.363 1.045-.671l.374.836c-.308.315-.689.557-1.144.726-.455.161-.95.242-1.485.242zM117.711 24v-6.864h-2.772v-.891h6.589v.891h-2.772V24h-1.045zm-6.086.099A6.52 6.52 0 0 1 110.47 24c-.367-.073-.704-.176-1.012-.308a3.49 3.49 0 0 1-.814-.495l.352-.836a4.26 4.26 0 0 0 .77.473 3.75 3.75 0 0 0 .869.275c.308.059.638.088.99.088.631 0 1.1-.117 1.408-.352a1.1 1.1 0 0 0 .473-.924c0-.213-.051-.389-.154-.528-.095-.147-.249-.271-.462-.374s-.491-.187-.836-.253l-1.188-.242c-.704-.139-1.225-.381-1.562-.726-.33-.345-.495-.796-.495-1.353 0-.462.125-.865.374-1.21s.59-.612 1.023-.803c.44-.191.942-.286 1.507-.286a4.46 4.46 0 0 1 1.012.11 3.45 3.45 0 0 1 .891.308c.271.139.51.312.715.517l-.352.803c-.323-.286-.671-.495-1.045-.627-.367-.139-.774-.209-1.221-.209-.374 0-.7.059-.979.176-.279.11-.495.268-.649.473s-.231.447-.231.726c0 .323.099.579.297.77.205.191.55.334 1.034.429l1.177.242c.741.147 1.287.381 1.639.704.359.323.539.752.539 1.287a2.04 2.04 0 0 1-.352 1.177c-.235.337-.572.601-1.012.792-.433.183-.95.275-1.551.275zM102.584 24v-7.755h4.994v.869h-3.982v2.519h3.751v.869h-3.751v2.629h3.982V24h-4.994zm-7.605 0v-7.755h3.19c.807 0 1.43.176 1.87.528.447.352.671.851.671 1.496 0 .477-.136.873-.407 1.188s-.634.524-1.089.627v-.121a2.01 2.01 0 0 1 .88.319 1.65 1.65 0 0 1 .594.638 1.98 1.98 0 0 1 .209.935c0 .462-.103.854-.308 1.177-.198.315-.495.557-.891.726-.389.161-.854.242-1.397.242h-3.322zm1.012-.836h2.211c.227 0 .429-.015.605-.044a1.63 1.63 0 0 0 .473-.165 1.19 1.19 0 0 0 .33-.264 1.15 1.15 0 0 0 .198-.374 1.68 1.68 0 0 0 .066-.484 1.65 1.65 0 0 0-.066-.495.94.94 0 0 0-.209-.374c-.088-.11-.198-.198-.33-.264-.132-.073-.29-.125-.473-.154a2.92 2.92 0 0 0-.594-.055h-2.211v2.673zm0-3.509h2.035c.55 0 .964-.11 1.243-.33s.418-.543.418-.968c0-.418-.139-.733-.418-.946-.279-.22-.693-.33-1.243-.33h-2.035v2.574zM146.627 12V4.245h4.994v.869h-3.982v2.519h3.751v.869h-3.751v2.629h3.982V12h-4.994zm-4.098.099c-.763 0-1.423-.161-1.98-.484a3.19 3.19 0 0 1-1.265-1.375c-.294-.594-.44-1.302-.44-2.123s.146-1.525.44-2.112a3.19 3.19 0 0 1 1.265-1.375c.55-.323 1.21-.484 1.98-.484a4.24 4.24 0 0 1 1.485.253c.454.161.836.4 1.144.715l-.374.836c-.338-.308-.686-.528-1.045-.66-.36-.139-.756-.209-1.188-.209-.836 0-1.482.264-1.936.792-.448.521-.671 1.269-.671 2.244s.223 1.727.671 2.255c.454.528 1.1.792 1.936.792.432 0 .828-.066 1.188-.198a3.37 3.37 0 0 0 1.045-.671l.374.836c-.308.315-.69.557-1.144.726-.455.161-.95.242-1.485.242zM130.324 12l3.443-7.755h.88L138.09 12h-1.078l-.946-2.2.484.286h-4.697l.484-.286-.946 2.2h-1.067zm3.861-6.578l-1.705 4.037-.275-.231h3.982l-.253.231-1.716-4.037h-.033zM125.197 12V4.245h1.034v6.853h3.894V12h-4.928zm-7.165 0V4.245h3.168c.557 0 1.03.092 1.419.275a1.98 1.98 0 0 1 .891.803c.206.352.308.777.308 1.276 0 .491-.103.913-.308 1.265s-.503.623-.891.814c-.389.183-.862.275-1.419.275h-2.134V12h-1.034zm1.034-3.894h1.991c.572 0 1.001-.125 1.287-.374.293-.257.44-.634.44-1.133s-.147-.873-.44-1.122c-.286-.249-.715-.374-1.287-.374h-1.991v3.003zM110.224 12V5.136h-2.772v-.891h6.589v.891h-2.772V12h-1.045zm-6.086.099a6.5 6.5 0 0 1-1.155-.099c-.367-.073-.704-.176-1.012-.308a3.49 3.49 0 0 1-.814-.495l.352-.836a4.26 4.26 0 0 0 .77.473 3.75 3.75 0 0 0 .869.275c.308.059.638.088.99.088.63 0 1.1-.117 1.408-.352a1.1 1.1 0 0 0 .473-.924.87.87 0 0 0-.154-.528c-.096-.147-.25-.271-.462-.374s-.492-.187-.836-.253l-1.188-.242c-.704-.139-1.225-.381-1.562-.726-.33-.345-.495-.796-.495-1.353 0-.462.124-.865.374-1.21a2.45 2.45 0 0 1 1.023-.803c.44-.191.942-.286 1.507-.286.359 0 .696.037 1.012.11.322.066.619.169.891.308a2.85 2.85 0 0 1 .715.517l-.352.803c-.323-.286-.671-.495-1.045-.627-.367-.139-.774-.209-1.221-.209-.374 0-.701.059-.979.176-.279.11-.495.268-.649.473s-.231.447-.231.726c0 .323.099.579.297.77.205.191.55.334 1.034.429l1.177.242c.74.147 1.287.381 1.639.704.359.323.539.752.539 1.287 0 .44-.118.832-.352 1.177-.235.337-.572.601-1.012.792-.433.183-.95.275-1.551.275zM95.243 12v-.88h1.848V5.114l.539.022-2.002 1.265-.44-.781 2.189-1.375h.748v6.875h1.727V12h-4.609z"/></svg>
