<svg width="144" height="48" viewBox="0 0 144 48" fill="none" xmlns="http://www.w3.org/2000/svg">
<path d="M137.267 8.92776V12.6652C136.47 11.9992 135.555 11.4203 134.464 11.4203C133.312 11.4203 132.514 12.1739 132.514 13.3042C132.514 14.7715 133.659 15.5817 134.94 16.4888C136.569 17.6423 138.42 18.9525 138.42 21.97C138.42 25.3032 136.382 27.9406 132.809 27.9406C131.599 27.9406 130.417 27.6216 129.413 26.9551V23.3028C130.299 23.8822 131.215 24.346 132.307 24.346C133.636 24.346 134.61 23.5348 134.61 22.2009C134.61 21.8535 134.551 21.5344 134.404 21.2154C134.096 20.5853 133.229 20.0204 132.58 19.5981C132.483 19.535 132.391 19.4751 132.307 19.4186C130.092 17.9115 128.674 16.5199 128.674 13.7093C128.674 10.6657 130.476 8 133.812 8C135.142 8 136.116 8.28966 137.267 8.92776Z" fill="white"/>
<path d="M50.5931 16.8697C50.623 17.3619 50.623 17.8552 50.623 18.3474C50.623 19.7097 50.5642 21.1013 50.2691 22.4342C49.6189 25.419 47.6407 27.9409 44.3044 27.9409C38.9889 27.9409 37.3058 22.3177 37.3058 18.0284C37.3058 13.5942 38.7825 8.00034 44.3044 8.00034C47.3167 8.00034 49.265 9.85481 50.0926 12.5793L46.3126 14.0287C46.1351 12.8984 45.8111 11.3619 44.3344 11.3619C41.6771 11.3619 41.4697 16.1445 41.4697 17.9706C41.4697 19.8839 41.5584 24.4629 44.3632 24.4629C46.489 24.4629 46.7253 21.8549 46.7553 20.289H44.2745V16.8687L50.5931 16.8697Z" fill="white"/>
<path d="M23.0989 8.92911L23.1 12.6675C22.3025 12.0014 21.3864 11.4217 20.2952 11.4217C19.1435 11.4217 18.3458 12.1752 18.3458 13.3056C18.3458 14.7729 19.4902 15.5831 20.7715 16.4902C22.4009 17.6437 24.2516 18.9539 24.2516 21.9713C24.2516 25.3045 22.2135 27.942 18.6409 27.942C17.4305 27.942 16.2489 27.6229 15.2448 26.9565V23.3042C16.1302 23.8835 17.0466 24.3474 18.1384 24.3474C19.4675 24.3474 20.4417 23.5361 20.4417 22.2022C20.4417 21.8548 20.3828 21.5358 20.2353 21.2167C19.9273 20.5867 19.0601 20.0218 18.4117 19.5994C18.3148 19.5363 18.2229 19.4764 18.1384 19.42C15.9238 17.9129 14.5059 16.5212 14.5059 13.7107C14.5059 10.6671 16.3077 8.00135 19.644 8.00135C20.9731 8.00135 21.9473 8.29102 23.0989 8.92911Z" fill="white"/>
<path fill-rule="evenodd" clip-rule="evenodd" d="M9.50543 27.6226L8.7676 24.3765H4.84002L4.13106 27.6226H0.23342L4.84002 8.2907H8.91517L13.6405 27.6226H9.50543ZM8.17734 21.3906L8.12928 21.1753C7.73173 19.3946 7.33934 17.6371 7.05563 15.8261C6.93694 14.9855 6.81932 14.1165 6.73056 13.2759C6.55306 16.0004 5.99274 18.6955 5.43135 21.3917L8.17734 21.3906Z" fill="white"/>
<path d="M33.3876 27.6226L29.7551 17.7971V27.6226H25.8575V8.2907H29.7551V16.9281L33.0326 8.2907H37.019L33.3865 17.2178L37.4617 27.6226H33.3876Z" fill="white"/>
<path fill-rule="evenodd" clip-rule="evenodd" d="M59.453 24.3751L60.1908 27.6212H64.3258L59.6006 8.28935H55.5254L50.9188 27.6212H54.8165L55.5254 24.3751H59.453ZM58.8136 21.174L58.8617 21.3893L56.1157 21.3903C56.6771 18.6941 57.2374 15.999 57.4149 13.2745C57.5036 14.1152 57.6213 14.9841 57.7399 15.8248C58.0236 17.6352 58.4162 19.3938 58.8136 21.174Z" fill="white"/>
<path d="M78.3027 13.709L79.2768 27.6212H83.2632L81.2262 8.28935H75.9695L74.4051 19.709L72.4856 8.28935H67.3476L65.6345 27.6212H69.7985L70.4187 13.709L70.655 15.9696C70.7421 16.9485 70.9473 17.8995 71.1523 18.8492L71.1565 18.8684L72.9871 27.6212H75.9695L77.7124 18.1725C77.9776 16.6938 78.2139 15.2161 78.3027 13.709Z" fill="white"/>
<path fill-rule="evenodd" clip-rule="evenodd" d="M93.1733 9.65161C91.8153 8.34707 90.0734 8.28935 89.0394 8.28935H84.8744V27.6212H89.0083C90.16 27.6212 92.1393 27.447 93.6449 25.9693C94.7377 24.8978 95.1216 23.5932 95.1216 22.1439C95.1216 21.4197 95.004 20.3471 94.4426 19.4194C94.2063 19.0426 93.5861 18.1736 92.3168 17.7097C93.0557 17.42 93.5572 16.9562 93.8823 16.5794C94.5912 15.7387 94.7976 14.7816 94.7976 13.8255C94.7976 12.2596 94.2362 10.6665 93.1733 9.65161ZM90.4861 15.5645C90.1023 15.9413 89.3933 16.2016 88.7731 16.231V11.4494C89.6296 11.4494 90.1611 11.7097 90.4861 12.0287C91.0475 12.5797 91.1063 13.3039 91.1063 13.7678C91.1063 14.2023 91.0475 15.0135 90.4861 15.5645ZM90.545 23.7087C90.1023 24.1148 89.3933 24.3174 88.7731 24.3174V19.1874C89.3334 19.1874 90.0424 19.39 90.515 19.7961C90.9577 20.2012 91.2828 20.8971 91.2828 21.8248C91.2828 22.6655 90.9588 23.3319 90.545 23.7087Z" fill="white"/>
<path d="M97.0057 8.28935V27.6212H104.979V23.9983H100.903V8.28935H97.0057Z" fill="white"/>
<path d="M106.586 8.28935V27.6212H114.47V24.0561H110.483V19.709H113.938V16.0567H110.483V11.8829H114.411V8.28935H106.586Z" fill="white"/>
<path fill-rule="evenodd" clip-rule="evenodd" d="M120.248 18.7235L123.703 27.6212L127.808 27.6223L124.383 18.84C126.302 17.6803 127.188 16.1155 127.188 13.9126C127.188 12.1158 126.42 10.232 124.854 9.21711C123.614 8.40584 122.02 8.28935 120.573 8.28935H116.35V27.6212H120.248V18.7235ZM120.898 16.6371C120.691 16.6371 120.454 16.6371 120.248 16.6077L120.249 11.3046H120.987C122.699 11.3046 123.408 12.3772 123.408 13.942C123.408 15.5068 122.581 16.6371 120.898 16.6371Z" fill="white"/>
<path d="M141.436 13.4026C142.852 13.4026 144 12.2758 144 10.8858C144 9.4959 142.852 8.36912 141.436 8.36912C140.02 8.36912 138.872 9.4959 138.872 10.8858C138.872 12.2758 140.02 13.4026 141.436 13.4026Z" fill="white"/>
<path d="M127.61 37.5197L126.763 38.6647C127.533 39.4445 128.674 39.9986 130.251 39.9986C132.547 39.9986 133.559 38.7907 133.559 37.3927C133.559 35.5674 131.858 35.1408 130.445 34.7866C129.442 34.5352 128.584 34.3202 128.584 33.667C128.584 33.0499 129.148 32.6217 130.021 32.6217C130.918 32.6217 131.828 32.9239 132.508 33.5904L133.355 32.4957C132.573 31.7411 131.483 31.3129 130.162 31.3129C128.276 31.3129 127.045 32.3824 127.045 33.7803C127.045 35.537 128.659 35.9379 130.048 36.2829C131.099 36.5437 132.021 36.7727 132.021 37.5313C132.021 38.099 131.546 38.6899 130.315 38.6899C129.123 38.6899 128.186 38.1368 127.61 37.5197Z" fill="white"/>
<path d="M0 35.6572C0 33.0638 1.96219 31.3143 4.4879 31.3143C6.20629 31.3143 7.28416 32.1822 7.91291 33.1898L6.64257 33.8447C6.23195 33.1394 5.39789 32.623 4.4879 32.623C2.79518 32.623 1.53874 33.8814 1.53874 35.6572C1.53874 37.4067 2.79518 38.6902 4.4879 38.6902C5.39896 38.6902 6.23195 38.1623 6.64257 37.4696L7.92467 38.0993C7.27132 39.1058 6.20629 40 4.4879 40C1.96219 39.999 0 38.2368 0 35.6572Z" fill="white"/>
<path d="M9.1994 31.4509V39.8469H15.0603V38.5508H10.6996V36.2093H14.9705V34.9132H10.6996V32.747H15.0603V31.4509H9.1994Z" fill="white"/>
<path fill-rule="evenodd" clip-rule="evenodd" d="M19.6831 36.7131L21.5683 39.8469L23.3124 39.8458L21.209 36.5483C22.2473 36.3846 23.2482 35.567 23.2482 34.0809C23.2482 32.5214 22.1329 31.4509 20.4402 31.4509H16.6826V39.8469H18.1829V36.7131H19.6831ZM20.2477 32.748C21.0935 32.748 21.7095 33.2634 21.7095 34.0694C21.7095 34.888 21.0935 35.4159 20.2477 35.4159H18.1829V32.748H20.2477Z" fill="white"/>
<path d="M26.7392 32.7484V39.8472H28.2405V32.7484H30.8315V31.4522H24.1493V32.7484H26.7392Z" fill="white"/>
<path d="M32.4371 31.4509V39.8469H33.9373V31.4509H32.4371Z" fill="white"/>
<path d="M35.8371 31.4509V39.8469H37.3373V36.2093H41.6081V34.9132H37.3373V32.747H41.698V31.4509H35.8371Z" fill="white"/>
<path d="M43.3947 31.4509V39.8469H44.8949V31.4509H43.3947Z" fill="white"/>
<path d="M50.9144 31.3143C48.3876 31.3143 46.4254 33.0638 46.4254 35.6572C46.4254 38.2368 48.3866 39.999 50.9134 39.999C52.6317 39.999 53.6968 39.1048 54.3501 38.0983L53.068 37.4686C52.6574 38.1613 51.8233 38.6892 50.9134 38.6892C49.2196 38.6892 47.9631 37.4056 47.9631 35.6561C47.9631 33.8803 49.2206 32.622 50.9134 32.622C51.8233 32.622 52.6574 33.1383 53.068 33.8436L54.3384 33.1898C53.7096 32.1822 52.6328 31.3143 50.9144 31.3143Z" fill="white"/>
<path fill-rule="evenodd" clip-rule="evenodd" d="M61.1912 38.2233L61.8189 39.8469H63.5266L60.1668 31.4509H58.2945L54.9336 39.8469H56.6392L57.2669 38.2233H61.1912ZM57.6892 36.9272L59.228 32.9244L60.7667 36.9272H57.6892Z" fill="white"/>
<path d="M65.7339 32.7487V39.8475H67.2352V32.7487H69.8261V31.4525H63.144V32.7487H65.7339Z" fill="white"/>
<path d="M71.1758 31.4509V39.8469H77.0367V38.5508H72.6771V36.2093H76.9469V34.9132H72.6771V32.747H77.0367V31.4509H71.1758Z" fill="white"/>
<path fill-rule="evenodd" clip-rule="evenodd" d="M86.0456 31.3143C83.4804 31.3143 81.6732 33.152 81.6732 35.6572C81.6732 38.1613 83.4804 39.999 86.0456 40C88.5981 40 90.4191 38.1623 90.4191 35.6572C90.4191 33.152 88.5981 31.3143 86.0456 31.3143ZM86.0456 32.623C87.764 32.623 88.8804 33.9202 88.8804 35.6572C88.8804 37.3815 87.764 38.6902 86.0456 38.6902C84.3144 38.6902 83.212 37.3815 83.212 35.6572C83.212 33.9192 84.3144 32.623 86.0456 32.623Z" fill="white"/>
<path d="M91.9393 31.4509V39.8469H93.4395V36.2093H97.7093V34.9132H93.4395V32.747H97.7991V31.4509H91.9393Z" fill="white"/>
<path d="M104.667 32.7487V39.8475H106.167V32.7487H108.758V31.4525H102.076V32.7487H104.667Z" fill="white"/>
<path fill-rule="evenodd" clip-rule="evenodd" d="M113.367 36.7131L115.252 39.8469L116.997 39.8458L114.894 36.5483C115.932 36.3846 116.933 35.567 116.933 34.0809C116.933 32.5214 115.817 31.4509 114.124 31.4509H110.366V39.8469H111.867V36.7131H113.367ZM113.931 32.748C114.777 32.748 115.393 33.2634 115.393 34.0694C115.393 34.888 114.777 35.4159 113.931 35.4159H111.867V32.748H113.931Z" fill="white"/>
<path d="M118.257 31.4522V36.5245C118.257 38.6014 119.488 39.9983 121.964 39.9983C124.452 39.9983 125.67 38.6014 125.67 36.5245V31.4522H124.144V36.4867C124.144 37.8206 123.387 38.6896 121.964 38.6896C120.54 38.6896 119.783 37.8206 119.783 36.4867V31.4522H118.257Z" fill="white"/>
<path d="M136.925 39.8472V32.7484H134.334V31.4522H141.016V32.7484H138.425V39.8472H136.925Z" fill="white"/>
</svg>
