<svg width="148" height="48" viewBox="0 0 148 48" fill="none" xmlns="http://www.w3.org/2000/svg">
<path d="M13.4393 18.3091C13.4393 17.1086 14.4255 16.0795 15.6261 16.0795C15.9168 16.0738 16.2058 16.1262 16.4761 16.2335C16.7463 16.3408 16.9925 16.501 17.2001 16.7046C17.4077 16.9083 17.5727 17.1513 17.6852 17.4194C17.7978 17.6876 17.8557 17.9755 17.8557 18.2663C17.8557 18.8666 17.6413 19.3811 17.2125 19.8099C16.7838 20.2386 16.2692 20.453 15.6689 20.453C15.0687 20.453 14.5541 20.2386 14.1254 19.8099C13.9023 19.6302 13.7242 19.401 13.6051 19.1405C13.486 18.88 13.4292 18.5954 13.4393 18.3091ZM19.0134 23.8832C19.0134 22.6826 19.9996 21.6536 21.2001 21.6536C22.4007 21.6536 23.4298 22.6398 23.4298 23.8403C23.4298 24.4406 23.2154 24.998 22.7866 25.3839C22.3578 25.8127 21.8433 26.0271 21.243 26.0271C20.6427 26.0271 20.1282 25.8127 19.6994 25.3839C19.4764 25.2043 19.2982 24.9751 19.1791 24.7146C19.0601 24.4541 19.0033 24.1695 19.0134 23.8832ZM10.3093 21.4392C9.72528 21.4391 9.16457 21.6681 8.74764 22.077C8.33072 22.4859 8.09086 23.0421 8.07963 23.626C8.07393 23.9167 8.12628 24.2057 8.23362 24.476C8.34096 24.7462 8.50113 24.9924 8.70476 25.2C8.90839 25.4076 9.15138 25.5726 9.41952 25.6851C9.68767 25.7977 9.97557 25.8556 10.2664 25.8556C10.8667 25.8556 11.3812 25.6412 11.81 25.2124C12.2387 24.7836 12.4531 24.2691 12.4531 23.6688C12.4531 23.0685 12.2387 22.554 11.81 22.1252C11.4241 21.6965 10.8667 21.4392 10.3093 21.4392ZM15.8833 27.0133C14.6828 27.0133 13.6537 27.9995 13.6537 29.2C13.6537 30.4006 14.6399 31.4296 15.8404 31.4296C16.4407 31.4296 16.9981 31.2153 17.384 30.7865C17.8128 30.3577 18.0272 29.8432 18.0272 29.2429C18.0272 28.6426 17.8128 28.1281 17.384 27.6993C16.9981 27.2705 16.4407 27.0133 15.8833 27.0133Z" fill="white"/>
<path d="M16.138 8.00012C15.1164 8.00012 14.18 8.37734 13.4564 9.08987L1.11242 21.2448C0.759784 21.5913 0.480011 22.0029 0.289122 22.456C0.0982325 22.9091 -2.47955e-05 23.3948 -2.47955e-05 23.8853C-2.47955e-05 24.3759 0.0982325 24.8616 0.289122 25.3147C0.480011 25.7678 0.759784 26.1794 1.11242 26.5259L6.09257 31.4298L8.47623 29.0826L3.15556 23.8853L3.9643 23.1309L16.138 11.1436L31.3764 26.1487L31.4615 26.2325L31.5466 26.1487C32.1 25.4361 32.3707 24.5493 32.308 23.6544C32.2454 22.7595 31.8536 21.9177 31.2061 21.2867L18.8622 9.08987C18.5034 8.74051 18.078 8.4644 17.6105 8.27738C17.143 8.09037 16.6426 7.99615 16.138 8.00012Z" fill="white"/>
<path d="M10.4554 31.8703L8.07921 34.2472L13.0862 39.2557C13.7944 39.9341 14.7364 40.3141 15.717 40.3168C16.7353 40.3168 17.6688 39.9348 18.3902 39.2133L28.6163 28.9841L26.2401 26.6072L15.717 37.1335L10.4554 31.8703ZM76.0552 16.081C75.2065 16.0385 74.4852 16.7177 74.4427 17.5665V17.6514C74.4427 18.5428 75.1641 19.2643 76.0552 19.2643C76.9038 19.3068 77.5827 18.6277 77.6251 17.7788V17.6514C77.6366 17.4563 77.6095 17.2608 77.5452 17.0761C77.481 16.8915 77.381 16.7214 77.2509 16.5755C77.1208 16.4296 76.9632 16.3108 76.7872 16.2259C76.6111 16.1411 76.42 16.0918 76.2249 16.081H76.0552ZM98.3319 20.6226C95.0647 20.6226 92.9431 22.5326 92.9431 25.4188V28.1777C92.9431 31.1063 95.0222 32.889 98.3319 32.889C101.642 32.889 103.721 31.0639 103.721 28.1777V25.4188C103.678 22.5326 101.599 20.6226 98.3319 20.6226ZM101.048 28.2201C101.048 29.7906 100.072 30.6395 98.3319 30.6395C96.5922 30.6395 95.6163 29.7906 95.6163 28.2201V25.4612C95.6163 23.8059 96.5498 22.957 98.3319 22.957C100.114 22.957 101.048 23.8059 101.048 25.4612V28.2201ZM107.455 29.4086C107.235 29.4446 107.024 29.5238 106.834 29.6414C106.645 29.7591 106.48 29.913 106.35 30.0944C106.22 30.2757 106.127 30.4809 106.076 30.6983C106.025 30.9156 106.018 31.1408 106.055 31.361C106.112 31.7117 106.278 32.0355 106.529 32.2868C106.78 32.5381 107.104 32.7042 107.455 32.7617C108.346 32.8041 109.11 32.125 109.152 31.2337V31.1063C109.158 30.8889 109.12 30.6726 109.042 30.4696C108.964 30.2666 108.847 30.0809 108.698 29.9233C108.548 29.7656 108.368 29.639 108.17 29.5507C107.971 29.4624 107.757 29.4141 107.54 29.4086H107.455ZM116.365 20.6226C113.098 20.6226 110.977 22.5326 110.977 25.4188V28.1777C110.977 31.1063 113.056 32.889 116.365 32.889C119.675 32.889 121.754 31.0639 121.754 28.1777V25.4188C121.712 22.4901 119.59 20.6226 116.365 20.6226ZM119.081 28.2201C119.081 29.7906 118.105 30.6395 116.365 30.6395C114.626 30.6395 113.65 29.7906 113.65 28.2201V25.4612C113.65 23.8059 114.583 22.957 116.365 22.957C118.148 22.957 119.081 23.8059 119.081 25.4612V28.2201ZM142.334 21.5988C140.772 20.9584 139.1 20.6269 137.412 20.6226C135.375 20.6226 131.98 21.2592 131.98 25.631V27.4561C131.98 29.7906 133.296 32.2948 137.072 32.2948C138.091 32.2948 139.067 32.0826 139.958 31.6157H140V31.6581C140 32.125 139.83 33.653 138.642 34.3746C137.539 35.0961 135.969 34.9688 133.932 33.9926L132.829 36.0724C134.526 37.2184 137.539 37.6852 139.703 36.5817C141.018 35.8601 141.91 34.5868 142.164 33.1437V33.1012C142.291 32.5495 142.334 31.9552 142.334 31.361V21.5988ZM139.745 29.4086C139.009 29.8674 138.151 30.0896 137.284 30.0452C135.502 30.0452 134.569 29.1539 134.569 27.4561V25.631C134.569 23.7634 135.46 22.957 137.412 22.957C138.176 22.957 138.939 23.0419 139.661 23.2117H139.703L139.745 29.4086ZM130.58 22.957V20.7074C128.289 20.4103 125.955 20.7499 123.876 21.7261V32.6343H126.507V23.4239C127.822 23.0419 129.222 22.8721 130.58 22.957ZM87.9361 32.5919H90.5669V25.8432C90.5669 22.4052 88.6574 20.5801 85.0932 20.5801C83.3959 20.6226 81.6986 20.9197 80.1286 21.5563V32.5919H82.7594V23.1692H82.8018C83.5656 22.9994 84.3294 22.9146 85.0932 22.9146C87.5118 22.9146 87.9361 24.6972 87.9361 25.8857V32.5919ZM74.6973 20.8772H77.3281V32.5919H74.6973V20.8772ZM72.6606 29.1963C72.6606 26.6921 70.6239 26.0979 68.5447 25.6735C67.102 25.3763 65.9988 25.1641 65.9988 24.103C65.9988 23.2541 66.805 22.7448 68.1204 22.7448C69.1388 22.7872 70.1571 23.0419 71.0482 23.5512L72.0666 21.5988C70.8909 20.9648 69.5828 20.6159 68.2477 20.5801C66.0837 20.5801 63.5802 21.5139 63.5802 24.1454C63.5802 27.1166 66.9323 27.7108 68.0355 27.8806C69.1388 28.0503 70.1996 28.3475 70.1996 29.3237C70.1996 30.215 69.3509 30.7243 68.0355 30.7243C66.805 30.6819 65.5745 30.2575 64.5561 29.5359L63.5377 31.5308C64.8352 32.4666 66.3935 32.9714 67.9931 32.9739C70.8785 32.9315 72.6606 31.4883 72.6606 29.1963ZM60.9494 22.8297C60.6099 22.193 60.1008 21.6412 59.4643 21.2592C57.1305 19.901 53.6935 20.665 52.463 21.3017L53.1419 23.339L53.4389 23.2117L53.9481 23.0419L54.627 22.8721L55.3908 22.7448L56.197 22.7023L57.0032 22.7872L57.5124 22.957L57.9367 23.1692L58.2762 23.5088L58.5732 23.8908L58.8278 24.6548L58.8702 25.249V25.4612H58.7854C58.0216 25.3763 57.2578 25.2914 56.494 25.2914C53.3116 25.2914 51.4871 26.6497 51.4871 29.0266C51.4871 30.4697 52.166 32.9315 56.5789 32.9315C58.2002 32.9258 59.8082 32.6386 61.3313 32.0826L61.4161 32.0401V25.2914C61.4161 24.867 61.3737 24.4001 61.2888 23.9757C61.204 23.5937 61.0767 23.2541 60.907 22.9146L60.9494 22.8297ZM58.9127 30.3848H58.8702C58.1489 30.5546 57.3851 30.6819 56.6213 30.6819C55.0089 30.6819 54.0754 30.0877 54.0754 29.0266C54.0754 27.9655 54.8816 27.3712 56.5789 27.3712C57.3427 27.3712 58.1065 27.4561 58.8278 27.5835H58.9127V30.3848ZM40.5396 18.2457C39.2667 19.3068 38.5878 20.8772 38.5878 22.7872V26.9043C38.5878 28.8143 39.2667 30.3848 40.5396 31.4459C41.855 32.4221 43.425 32.9739 45.0798 32.9315C46.7347 32.9739 48.3047 32.507 49.7049 31.6157L48.5593 29.3661C48.3047 29.4935 45.8436 30.8092 43.722 30.215C42.1945 29.7906 41.3458 28.6021 41.3458 26.9043V22.8297C41.3458 21.1319 42.1945 19.9434 43.722 19.519C45.8436 18.9248 48.2622 20.1557 48.5593 20.3679L49.6625 18.0759C48.3047 17.227 46.6923 16.7601 45.0798 16.8025C43.4674 16.7601 41.855 17.2694 40.5396 18.2457ZM147.85 22.6174C147.85 22.8721 147.808 23.1268 147.723 23.339L147.383 23.8908C147.231 24.028 147.059 24.1424 146.874 24.2303C146.68 24.3132 146.47 24.356 146.259 24.356C146.047 24.356 145.838 24.3132 145.644 24.2303C145.431 24.1454 145.262 24.0606 145.134 23.8908L144.795 23.339C144.71 23.1268 144.668 22.8721 144.668 22.6174C144.668 22.3628 144.71 22.1081 144.795 21.8959L145.134 21.3441C145.287 21.2069 145.458 21.0925 145.644 21.0046C145.856 20.9197 146.025 20.8772 146.238 20.8772L146.874 21.0046C147.086 21.0894 147.256 21.1743 147.383 21.3441L147.723 21.8959C147.808 22.1081 147.85 22.3628 147.85 22.6174ZM147.426 22.6174L147.341 22.0657C147.3 21.902 147.211 21.7543 147.086 21.6412L146.704 21.3866L146.238 21.3017L145.771 21.3866L145.389 21.6412C145.262 21.7686 145.219 21.8959 145.134 22.0657L145.049 22.6174L145.134 23.1692C145.177 23.339 145.262 23.4663 145.389 23.5937C145.474 23.721 145.601 23.8059 145.771 23.8483L146.238 23.9332L146.704 23.8483L147.086 23.5937C147.214 23.4663 147.298 23.339 147.341 23.1692C147.426 22.9994 147.426 22.8297 147.426 22.6174ZM146.619 23.5088L146.45 23.1692L146.28 22.9146H146.025V23.5512H145.601V21.8534L145.898 21.811H146.153C146.407 21.811 146.619 21.8534 146.747 21.9383C146.874 22.0232 146.959 22.193 146.959 22.3628L146.874 22.6599L146.662 22.8297L146.874 23.1268L147.086 23.5512H146.619V23.5088ZM145.983 22.5326H146.11L146.407 22.4901C146.492 22.4477 146.535 22.4052 146.535 22.2779L146.45 22.1081L146.195 22.0657H146.025V22.5326H145.983Z" fill="white"/>
</svg>
