<svg xmlns="http://www.w3.org/2000/svg" width="135" height="40" fill="#fff"><path d="M82.857 34.468c.621.354 1.364.532 2.229.532a4.79 4.79 0 0 0 1.654-.278c.507-.185.931-.447 1.274-.785l-.453-1.003c-.367.322-.751.556-1.151.701a3.68 3.68 0 0 1-1.286.218c-.915 0-1.617-.278-2.107-.834-.49-.564-.735-1.366-.735-2.405s.245-1.837.735-2.393c.498-.556 1.2-.834 2.107-.834a3.68 3.68 0 0 1 1.286.218c.4.145.784.379 1.151.701l.453-1.003a3.29 3.29 0 0 0-1.274-.786 4.97 4.97 0 0 0-1.654-.266c-.865 0-1.609.177-2.229.532a3.58 3.58 0 0 0-1.433 1.511c-.335.645-.502 1.418-.502 2.32s.167 1.68.502 2.332a3.67 3.67 0 0 0 1.433 1.523zm19.213-6.876v-1.293h1.482v1.293h-1.482zm.111 7.287v-5.922h1.273v5.922h-1.273zm3.086-5.921v5.922h1.273v-3.336a1.76 1.76 0 0 1 .209-.87 1.5 1.5 0 0 1 .587-.604 1.72 1.72 0 0 1 .87-.218c.294 0 .531.056.71.169a.89.89 0 0 1 .405.483c.089.21.134.479.134.81v3.565h1.262v-3.638c0-.54-.082-.987-.245-1.341a1.57 1.57 0 0 0-.71-.786c-.319-.177-.719-.266-1.201-.266a2.54 2.54 0 0 0-1.323.35 2.01 2.01 0 0 0-.747.803v-1.045h-1.224z"/><path fill-rule="evenodd" d="M113.556 34.614c.45.25.976.375 1.58.375.613 0 1.14-.125 1.58-.375.45-.25.797-.604 1.042-1.063.245-.467.367-1.011.367-1.632 0-.628-.122-1.172-.367-1.632s-.592-.814-1.042-1.063c-.44-.25-.967-.375-1.58-.375-.604 0-1.13.125-1.58.375a2.6 2.6 0 0 0-1.028 1.063c-.245.459-.368 1.003-.368 1.632 0 .62.123 1.164.368 1.632a2.6 2.6 0 0 0 1.028 1.063zm2.83-1.148c-.311.355-.727.532-1.25.532-.514 0-.93-.177-1.249-.532-.31-.363-.465-.882-.465-1.559 0-.669.155-1.18.465-1.535s.727-.532 1.249-.532c.531 0 .948.177 1.25.532.31.355.465.866.465 1.535 0 .677-.155 1.197-.465 1.559z"/><path d="M97.269 34.904c.31.056.629.085.955.085.506 0 .947-.073 1.323-.218s.665-.351.87-.616c.212-.274.318-.596.318-.967 0-.435-.139-.782-.416-1.039s-.69-.439-1.237-.544l-1.2-.23c-.286-.056-.494-.145-.625-.266-.131-.129-.196-.294-.196-.495 0-.258.11-.463.331-.616.229-.153.559-.23.992-.23.212 0 .429.028.649.085a2.97 2.97 0 0 1 .637.218 2.07 2.07 0 0 1 .552.351l.379-.858a2.15 2.15 0 0 0-.612-.399c-.237-.105-.494-.181-.772-.23-.27-.056-.547-.085-.833-.085-.498 0-.935.076-1.31.23-.376.145-.666.354-.87.628s-.306.596-.306.967c0 .419.131.765.392 1.039.269.274.669.459 1.2.556l1.2.23c.302.056.527.145.674.266.147.113.22.274.22.483 0 .25-.114.451-.343.604-.229.145-.567.218-1.017.218a3.91 3.91 0 0 1-.735-.072c-.253-.048-.498-.121-.735-.218s-.457-.218-.661-.363l-.355.858a2.57 2.57 0 0 0 .674.387c.261.105.547.185.857.242z"/><path d="M91.21 34.989c-.425 0-.804-.081-1.139-.242s-.6-.379-.796-.653a1.66 1.66 0 0 1-.282-.943c0-.435.118-.782.355-1.039s.617-.439 1.139-.544c.523-.113 1.221-.169 2.094-.169h.478v-.314c0-.451-.106-.774-.318-.967-.204-.201-.539-.302-1.004-.302a3.63 3.63 0 0 0-1.041.157c-.343.097-.698.254-1.066.471l-.38-.882c.221-.145.474-.27.759-.375.286-.113.584-.197.894-.254a5 5 0 0 1 .894-.085c.547 0 1.004.085 1.372.254s.645.427.833.773.282.794.282 1.342v3.662H93.12V33.8a1.83 1.83 0 0 1-.319.524 1.9 1.9 0 0 1-.674.496 2.36 2.36 0 0 1-.919.169zm1.849-2.816h-.441l-1.127.048a2.69 2.69 0 0 0-.735.145c-.18.064-.31.157-.392.278a.85.85 0 0 0-.11.447c0 .298.106.54.319.725.22.185.519.278.894.278.302 0 .572-.072.808-.218a1.58 1.58 0 0 0 .576-.58c.139-.25.208-.528.208-.834v-.29zm-20.368 2.815c-.531 0-1-.125-1.409-.375-.4-.25-.71-.604-.931-1.063-.22-.467-.331-1.011-.331-1.632 0-.628.11-1.172.331-1.632a2.49 2.49 0 0 1 .931-1.064c.4-.25.87-.375 1.409-.375.514 0 .959.125 1.335.375a1.91 1.91 0 0 1 .674.753v-3.617h1.262v8.52h-1.213v-1.09a1.92 1.92 0 0 1-.698.824c-.384.25-.837.375-1.36.375zm.319-.979c.523 0 .939-.181 1.249-.544s.465-.878.465-1.547c0-.685-.155-1.205-.465-1.559s-.727-.532-1.249-.532-.939.177-1.249.532-.466.874-.466 1.559c0 .669.155 1.184.466 1.547s.727.544 1.249.544zm-8.253.617c.482.242 1.057.363 1.727.363.425 0 .849-.064 1.274-.193.433-.137.792-.326 1.078-.568l-.392-.858a2.88 2.88 0 0 1-.931.495 3.64 3.64 0 0 1-1.017.145c-.433 0-.804-.076-1.115-.23a1.58 1.58 0 0 1-.686-.713c-.118-.238-.191-.52-.219-.846h4.469v-.411c0-.612-.11-1.14-.331-1.583a2.36 2.36 0 0 0-.931-1.015c-.4-.242-.886-.363-1.458-.363-.58 0-1.094.133-1.543.399a2.74 2.74 0 0 0-1.053 1.076c-.245.459-.367.995-.367 1.607 0 .628.127 1.172.38 1.632a2.66 2.66 0 0 0 1.115 1.063zm3.107-3.178h-3.383c.029-.274.092-.52.191-.737.147-.306.355-.544.625-.713s.592-.254.968-.254c.523 0 .919.165 1.188.495.249.289.386.692.412 1.209z" fill-rule="evenodd"/><path d="M61.574 34.988c-.759 0-1.327-.189-1.703-.568-.367-.387-.551-.943-.551-1.668v-2.828h-1.176v-.967h1.188v-1.765h1.249v1.765h1.923v.967h-1.923v2.731c0 .427.094.749.282.967s.49.326.906.326c.131 0 .261-.016.392-.048l.404-.109.196.943c-.139.081-.318.141-.539.181a3.03 3.03 0 0 1-.649.072zm-5.793-8.689v1.293h1.482v-1.293h-1.482zm.11 2.659v5.922h1.274v-5.922h-1.274z"/><path d="M50.79 34.988c-.531 0-1-.125-1.409-.375-.4-.25-.71-.604-.931-1.063-.221-.467-.331-1.011-.331-1.632 0-.628.11-1.172.331-1.632a2.49 2.49 0 0 1 .931-1.064c.4-.25.87-.375 1.409-.375.514 0 .959.125 1.335.375a1.91 1.91 0 0 1 .674.753v-3.617h1.261v8.52h-1.212v-1.09a1.92 1.92 0 0 1-.698.824c-.384.25-.837.375-1.36.375zm.318-.979c.523 0 .939-.181 1.249-.544s.465-.878.465-1.547c0-.685-.155-1.205-.465-1.559s-.727-.532-1.249-.532-.939.177-1.249.532-.465.874-.465 1.559c0 .669.155 1.184.465 1.547s.727.544 1.249.544zm-8.251.617c.482.242 1.057.363 1.727.363.425 0 .849-.064 1.274-.193.433-.137.792-.326 1.078-.568l-.392-.858a2.88 2.88 0 0 1-.931.495 3.64 3.64 0 0 1-1.017.145c-.433 0-.804-.076-1.115-.23a1.58 1.58 0 0 1-.686-.713c-.117-.238-.191-.52-.219-.846h4.469v-.411c0-.612-.11-1.14-.331-1.583a2.36 2.36 0 0 0-.931-1.015c-.4-.242-.886-.363-1.458-.363-.58 0-1.094.133-1.543.399a2.74 2.74 0 0 0-1.053 1.076c-.245.459-.367.995-.367 1.607 0 .628.127 1.172.38 1.632a2.66 2.66 0 0 0 1.115 1.063zm3.107-3.178H42.58c.029-.274.092-.52.191-.737.147-.306.355-.544.625-.713s.592-.254.968-.254c.523 0 .919.165 1.188.495.249.289.387.692.412 1.209z" fill-rule="evenodd"/><path d="M37.028 34.879v-5.922h1.213v1.156c.139-.351.347-.627.625-.829.343-.25.792-.395 1.347-.435l.453-.036.098 1.088-.808.073c-.531.048-.939.218-1.225.508-.278.282-.416.665-.416 1.148v3.251h-1.286zm-4.795-.265c.457.25.996.375 1.617.375a3.49 3.49 0 0 0 1.139-.193c.376-.129.682-.302.919-.52l-.404-.906a2.34 2.34 0 0 1-.759.471 2.42 2.42 0 0 1-.796.145c-.58 0-1.033-.181-1.36-.544-.318-.371-.478-.882-.478-1.535 0-.661.159-1.168.478-1.523.327-.355.78-.532 1.36-.532.261 0 .531.052.808.157.278.097.531.25.759.459l.404-.894c-.245-.226-.555-.403-.931-.532a3.41 3.41 0 0 0-1.139-.193c-.612 0-1.147.125-1.605.375-.457.242-.808.592-1.053 1.052-.245.451-.367.991-.367 1.619 0 .62.122 1.164.367 1.632a2.64 2.64 0 0 0 1.041 1.088zm-4.124.375c-.621 0-1.159-.125-1.617-.375a2.64 2.64 0 0 1-1.041-1.088c-.245-.467-.367-1.011-.367-1.632 0-.628.122-1.168.367-1.619a2.49 2.49 0 0 1 1.053-1.052c.457-.25.992-.375 1.604-.375a3.41 3.41 0 0 1 1.139.193c.376.129.686.306.931.532l-.404.894c-.229-.209-.482-.362-.759-.459-.278-.105-.547-.157-.808-.157-.58 0-1.033.177-1.36.532-.318.354-.478.862-.478 1.523 0 .653.159 1.164.478 1.535.327.363.78.544 1.36.544a2.42 2.42 0 0 0 .796-.145 2.34 2.34 0 0 0 .759-.471l.404.906c-.237.218-.543.391-.919.52a3.49 3.49 0 0 1-1.139.193z"/><path d="M19.471 26.359l-3.846 8.52h1.311l.885-2.054h4.368l.895 2.054h1.323l-3.846-8.52h-1.09zm-1.194 5.426l1.709-4.012h.037l1.72 4.012h-3.465zm1.262-22.64c3.576 0 4.089 1.989 4.089 3.14v2.9l.002-.002c0 2.016 1.031 2.604 1.033 2.605l.039.407-2.839.554c-.343-.613-.595-1.552-.595-1.552-.575.661-1.623 1.496-2.917 1.496s-3.156-.624-3.156-2.733c0-2.744 3.42-2.661 5.796-2.494 0-.007.08-1.406-.175-2.118-.441-1.227-1.916-1.152-1.929-1.151-.652-.024-2.561 1.883-2.561 1.883-1.144-1.269-1.072-2.198-1.072-2.198.007-.002 2.281-.739 4.286-.739zm1.468 5.523s-1.743-.584-2.897.056c-.006.007-.674.829 0 1.959.403.675 2.177.525 2.897-.444v-1.571zm66.644-5.521c3.499 0 3.852 2.939 3.852 4.377h-.002l-.755.72h-5.438c0 2.011 1.465 2.771 2.551 2.771s3.132-1.009 3.145-1.015l.497.702c-.695.678-2.82 2.064-4.585 2.013-2.939-.086-4.465-2.168-4.465-4.443s1.701-5.126 5.2-5.126zm1.151 3.842c.002-.023.281-3.683-2.778-2.383 0 0-.548.619-.695 2.567l3.473-.185v.001zm33.006-3.842c3.496 0 3.85 2.939 3.85 4.377h-.001l-.755.72h-5.437c0 2.011 1.464 2.771 2.55 2.771s3.138-1.012 3.146-1.015l.496.702c-.695.678-2.821 2.064-4.585 2.013-2.938-.086-4.465-2.168-4.465-4.443s1.703-5.126 5.201-5.126zm1.151 3.842c.002-.024.279-3.683-2.779-2.383 0 0-.547.619-.695 2.567l3.474-.185v.001zM58.966 9.164c4.453 0 4.892 3.268 4.892 4.526 0 2.299-1.705 4.928-5.161 5.02-3.912.105-5.161-2.434-5.161-4.559 0-2.308 1.799-4.987 5.429-4.987h.002zm1.811 3.014a2.42 2.42 0 0 0-3.669-1.429c-.895 1.41-.801 3.501-.454 4.965a2.42 2.42 0 0 0 3.669 1.428c.895-1.409.801-3.501.455-4.964z" fill-rule="evenodd"/><path d="M8.743 5.212c2.525 0 4.485.961 4.485.961-.134.996-1.132 2.272-1.132 2.272C8.974 6.148 5.999 6.87 5.983 6.874c0 0-2.362 1.283-2.362 4.562 0 4.418 3.206 5.357 4.822 5.357s4.355-1.324 4.366-1.329l.734.997c-1.864 1.264-4.055 2.125-5.993 2.125S.625 17.522.625 11.991c0-4.854 4.504-6.779 8.118-6.779zm21.533 4.062c1.935 0 3.691.795 3.691.795-.334 1.302-1.069 1.956-1.072 1.959-2.403-2.193-4.108-1.386-4.108-1.386-.288.185-.619 1.223.268 1.625 1.128.512 1.499.373 3.007.905l-.003-.002c1.734.61 1.945 1.723 1.945 2.494 0 2.282-2.136 2.9-4.386 2.9s-3.791-1.054-3.791-1.054c.046-1.13.884-2.041.894-2.051 1.552 1.32 2.756 1.7 3.612 1.7s1.132-.474 1.132-1.015-.516-1.068-1.925-1.422-3.492-.797-3.492-2.752 2.293-2.696 4.228-2.696zm72.877 0c1.935 0 3.691.795 3.691.795-.332 1.298-1.065 1.952-1.072 1.959-2.396-2.187-4.098-1.39-4.108-1.386-.288.185-.619 1.223.267 1.625 1.129.512 1.5.373 3.007.905l-.002-.002c1.737.61 1.945 1.723 1.945 2.494 0 2.282-2.135 2.9-4.385 2.9s-3.791-1.054-3.791-1.054c.047-1.13.885-2.041.894-2.051 1.552 1.32 2.758 1.7 3.612 1.7s1.131-.474 1.131-1.015-.517-1.068-1.925-1.422-3.492-.797-3.492-2.752 2.293-2.696 4.228-2.696zm9.463.087l3.116-.233-.773 1.902s-.812-.151-2.341-.207l-.002-.002v4.832c0 .915-.091 1.411.82 1.17s1.556-.511 1.561-.512l.594.832c-.009.005-2.347 1.422-3.79 1.422s-1.746-.977-1.746-1.866l.016-5.869-1.982.126.714-1.662s.389.067 1.27.096v-.005c0-.6-.116-1.557-.117-1.569l2.66-.627v2.173zm-67.893.135c.091.324.154.739.197 1.18v-.013c1.171-.806 1.945-1.516 3.43-1.516 1.784 0 2.868 1.143 2.996 2.795v.002c.12 1.545-.278 4.182.621 6.015v.407h-3.492v-.407c.35-.907.336-2.311.336-3.103 0-2.653.118-3.595-1.172-3.763-.772-.102-1.773.284-2.641.763l.019 1.084v1.916c0 .769.046 2.066.574 3.103v.407H42.12v-.407c.252-.739.338-1.716.338-2.305V12.78c0-1.465-.506-2.284-1.19-2.672v-.407l3.218-.573.238.369zm23.699 0c.091.324.154.739.198 1.18v-.013c1.05-.808 1.753-1.516 3.169-1.516s2.175.653 2.533 1.545c1.046-.805 1.986-1.545 3.343-1.545 1.858 0 2.866 1.143 2.995 2.795v.002c.12 1.545-.278 4.182.621 6.015v.407H77.79v-.407c.35-.907.337-2.311.337-3.103 0-2.653.049-3.606-1.082-3.763-.772-.107-1.611.152-2.479.631.163 1.548-.248 4.415.643 6.235v.407h-3.295v-.407c.35-.907.336-2.311.336-3.103 0-2.653.108-3.601-1.082-3.763-.772-.105-1.602.284-2.47.763l.018 1.084v1.916c0 .769.047 2.066.575 3.103v.407h-3.473v-.407c.252-.739.337-1.716.337-2.305V12.78c0-1.465-.505-2.284-1.19-2.672v-.407l3.218-.573.238.369zM39.265 9.44c-.142.647-.118 2.613-.118 3.496v1.917c0 .769.046 2.066.575 3.103v.407h-3.473v-.407c.252-.739.338-1.716.338-2.305v-2.873c0-1.465-.506-2.284-1.19-2.672v-.407l3.631-.627.239.369zm57.435 0c-.142.647-.118 2.613-.118 3.496v1.917c0 .769.046 2.066.575 3.103v.407h-3.474v-.407c.252-.739.338-1.716.338-2.305v-2.873c0-1.465-.506-2.284-1.19-2.672v-.407l3.631-.627.238.369zm33.124-.314c.234.238.424.613.565 1.023v-.008c.28-.217 1.929-1.577 3.981-.737v.002c.001.01.088 1.122-.496 2.493-.005-.004-1.427-1.041-3.206-.565a3.92 3.92 0 0 1 .035.487v3.033c0 .769.046 2.066.575 3.103v.407h-3.474v-.407c.252-.739.338-1.716.338-2.305v-2.873c0-1.09-.431-2.248-1.115-2.636v-.407l2.797-.61zM38.49 5.002l.362.211c.127.257.295.781.203 1.652l-.238.246c-.36.094-1.148.265-2.187.303l.002-.002-.305-.177c-.123-.286-.329-.886-.278-1.671l.261-.27c.405-.115 1.267-.319 2.182-.292zm57.435 0l.362.211c.127.257.294.781.202 1.652l-.239.246c-.358.094-1.145.265-2.187.303v-.002l-.305-.177a3.66 3.66 0 0 1-.278-1.671l.262-.27c.405-.115 1.268-.319 2.182-.292z"/></svg>
